# xmcd
#
# Track frame offsets:
#	150
#	16040
#	34340
#	49424
#	62136
#	83090
#	96023
#	109205
#	121623
#	128613
#	144792
#	163707
#	174448
#	186157
#	202921
#	217414
#	231859
#	244446
#
# Disc length: 3522 seconds
#
# Revision: 1
# Processed by: cddbd v1.5.2PL0 Copyright (c) Steve Scherf et al.
# Submitted via: audiograbber 1.83.01
#
DISCID=f70dc012
DTITLE=Andrzej Rosiewicz - Czy Czuje Pani Cza-Cze
DYEAR=2004
DGENRE=Folk
TTITLE0=Kabaret
TTITLE1=W Lubaratowie
TTITLE2=Chlopcy Radarowcy
TTITLE3=Samba Wanna Blues
TTITLE4=Najwiecej Witaminy
TTITLE5=Podroz Poslubna Do Kutna
TTITLE6=Czy Czuje Pani Cza-Cze
TTITLE7=Disco Rzysko
TTITLE8=Czterdziestolatek I Blaszany Charleston
TTITLE9=Zycie To Interes
TTITLE10=Zenek Blues
TTITLE11=Jak Przyjemnie Pokowboic
TTITLE12=Ech Matrosy
TTITLE13=Paryzie Tango
TTITLE14=Zakochany Balwan
TTITLE15=Ballada O Mary Brown
TTITLE16=Usta Mariana
TTITLE17=Pytasz Mnie... (O Polske)
EXTD=Music from POLAND
EXTT0=
EXTT1=
EXTT2=
EXTT3=
EXTT4=
EXTT5=
EXTT6=
EXTT7=
EXTT8=
EXTT9=
EXTT10=
EXTT11=
EXTT12=
EXTT13=
EXTT14=
EXTT15=
EXTT16=
EXTT17=
PLAYORDER=
